<svg width="24" height="24" viewBox="0 0 24 24" fill="none" xmlns="http://www.w3.org/2000/svg">
<path d="M15.609 5.50002V15.66C15.609 16.06 15.489 16.45 15.269 16.78L12.539 20.84C12.109 21.49 11.039 21.95 10.129 21.61C9.14904 21.28 8.49904 20.18 8.70904 19.2L9.22904 15.93C9.26904 15.63 9.18904 15.36 9.01904 15.15C8.93216 15.0529 8.82585 14.9751 8.70698 14.9217C8.58811 14.8683 8.45935 14.8405 8.32904 14.84H4.21904C3.42904 14.84 2.74904 14.52 2.34904 13.96C1.96904 13.42 1.89904 12.72 2.14904 12.01L4.60904 4.52002C4.91904 3.28002 6.26904 2.27002 7.60904 2.27002H11.509C12.179 2.27002 13.119 2.50002 13.549 2.93002L14.829 3.92002C15.0711 4.10634 15.2672 4.34561 15.4024 4.61949C15.5376 4.89337 15.6083 5.19458 15.609 5.50002ZM18.79 17.608H19.82C21.37 17.608 22 17.008 22 15.528V5.47802C22 3.99802 21.37 3.39802 19.82 3.39802H18.79C17.24 3.39802 16.61 3.99802 16.61 5.47802V15.538C16.61 17.008 17.24 17.608 18.79 17.608Z" fill="black"/>
</svg>
